<svg xmlns="http://www.w3.org/2000/svg" width="512" height="512" viewBox="0 0 512 512"><defs><linearGradient id="g" x1="0" y1="0" x2="1" y2="1"><stop stop-color="#f2d99a"/><stop offset=".5" stop-color="#caa35d"/><stop offset="1" stop-color="#8e6b36"/></linearGradient></defs><circle cx="256" cy="256" r="238" fill="#08090b"/><circle cx="256" cy="256" r="207" fill="none" stroke="#caa35d" stroke-width="3" opacity=".75"/><g fill="none" stroke="url(#g)" stroke-linecap="round"><path d="M249 307V188M263 307V188" stroke-width="14"/><path d="M249 194C190 125 145 128 123 171C101 214 142 258 240 276M263 194C322 125 367 128 389 171C411 214 370 258 272 276" stroke-width="17"/><path d="M244 278C190 316 160 359 190 374C218 388 244 355 256 318M268 278C322 316 352 359 322 374C294 388 268 355 256 318" stroke-width="15"/><path d="M250 178C226 128 210 110 181 91M262 178C286 128 302 110 331 91" stroke-width="6"/></g><circle cx="179" cy="89" r="7" fill="#f2d99a"/><circle cx="333" cy="89" r="7" fill="#f2d99a"/></svg>
